<svg version="1.1" id="Layer_1" xmlns="http://www.w3.org/2000/svg" xmlns:xlink="http://www.w3.org/1999/xlink" x="0px" y="0px"
	 viewBox="0 0 44 44" enable-background="new 0 0 44 44" xml:space="preserve">
<path fill="#FFFFFF" d="M35.4844,17.0688C34.2366,10.759,28.676,6,22,6c-5.6921,0-10.5758,3.4589-12.6653,8.3893
  C4.052,15.1938,0,19.4925,0,25c0,6.0751,4.9249,11,11,11c0,0,23.3328,0,23.375,0C39.6907,36,44,31.6907,44,26.375
  C44,21.4351,40.2767,17.6196,35.4844,17.0688z M22,30.5c-1.1055,0-2-0.8945-2-2h4C24,29.6055,23.1055,30.5,22,30.5z M29,27.5H15
  v-0.8245l1.6489-1.6489V20.5c0-2.5278,1.75-4.6434,4.1144-5.2034v-0.56c0-0.6844,0.5522-1.2366,1.2367-1.2366
  s1.2367,0.5522,1.2367,1.2366v0.56c2.3644,0.56,4.1144,2.6756,4.1144,5.2034v4.5267L29,26.6755V27.5z"/>
</svg>
