<svg xmlns="http://www.w3.org/2000/svg" width="202" height="36" viewBox="0 0 202 36"><g fill="#3C3C3B"><path d="M196.232 11.692c-3.026 0-5.695-2.342-5.695-6.028 0-2.908 2.12-5.177 4.86-5.604.622-.07 1.227-.09 1.886 0C200.113.503 202 2.88 202 5.664c0 3.758-2.562 6.028-5.768 6.028zm.872-10.443c-.498-.073-1.015-.073-1.547 0-2.19.353-3.703 2.18-3.703 4.467 0 2.978 1.976 4.75 4.38 4.75 2.51 0 4.432-1.843 4.432-4.75 0-2.412-1.405-4.13-3.562-4.468zM184.11 11.655c-1.408 0-2.687-.548-3.56-1.595-.783-.94-1.14-2.074-1.07-3.403.162-1.987 1.374-3.617 3.312-4.168.465-.125.89-.16 1.317-.16.443 0 .927.036 1.353.16 1.958.55 3.117 2.198 3.294 4.167.054 1.33-.285 2.462-1.087 3.403-.87 1.047-2.135 1.595-3.56 1.595zm-.96-7.996c-1.515.39-2.388 1.79-2.388 3.404 0 .76.285 1.613.784 2.217.624.71 1.603 1.17 2.563 1.17.98 0 1.922-.425 2.546-1.17.533-.62.783-1.455.783-2.25 0-1.596-.873-2.98-2.37-3.37-.266-.07-.605-.124-.943-.124-.337 0-.693.052-.978.123z"/></g><g fill="#E61A5F"><path d="M92.73 16.432c.308-.522.924-.37.924.246V35.25c0 .705-.95.736-.95 0V18.334L85.49 30.767c-.224.46-.755.46-.98 0l-7.213-12.37V35.25c0 .736-.95.705-.95 0V16.677c0-.614.615-.768.894-.246l7.774 13.292 7.717-13.29zM97.723 25.66c.135-4.604 2.732-8.672 6.98-9.416.947-.147 1.976-.147 2.922 0 4.273.744 7.195 4.813 7.306 9.416.163 5.733-3.896 10.13-8.603 10.13-4.68 0-8.74-4.396-8.604-10.13zm.92.03c-.135 5.108 3.49 9.178 7.684 9.178 4.22 0 7.847-4.07 7.712-9.178-.11-4.16-2.707-7.842-6.55-8.495-.865-.148-1.786-.148-2.65 0-3.817.654-6.09 4.336-6.197 8.495zM131.165 16.113c.67 0 .67.92 0 .92h-7.24l.027 18.17c0 .398-.28.582-.503.582-.226 0-.476-.184-.476-.583V17.034h-7.214c-.67 0-.67-.92 0-.92h15.405zM134.385 16.674c0-.766 1.004-.766 1.004 0v18.593c0 .704-1.005.704-1.005 0V16.674zM139.487 25.657c.135-4.614 2.738-8.692 6.995-9.437.95-.148 1.98-.148 2.93 0 4.283.745 7.21 4.822 7.318 9.437.164 5.744-3.903 10.15-8.62 10.15-4.69 0-8.758-4.406-8.623-10.15zm.922.03c-.138 5.12 3.497 9.198 7.7 9.198 4.228 0 7.86-4.078 7.727-9.198-.11-4.167-2.71-7.858-6.563-8.513-.865-.148-1.788-.148-2.656 0-3.824.655-6.1 4.346-6.21 8.513zM174.01 16.688c0-.77.95-.77.95 0v18.496c0 .737-.614.737-.98.246l-12.173-17.42v17.235c0 .737-.923.737-.923 0V16.78c0-.77.587-.86.98-.307l12.145 17.42V16.69z"/></g><g fill="#3C3C3B"><path d="M10.2 33.093c.828 0 1.55-.075 2.163-.224.614-.15 1.197-.356 1.754-.62v-3.573h-2.472c-.235 0-.422-.064-.557-.196-.138-.13-.205-.29-.205-.48v-2.065h6.56v7.946c-.5.363-1.02.68-1.562.946-.54.268-1.118.486-1.73.658-.614.173-1.272.3-1.972.388-.7.085-1.45.128-2.262.128-1.44 0-2.76-.25-3.97-.748-1.208-.5-2.255-1.19-3.137-2.078-.883-.888-1.57-1.947-2.067-3.178C.248 28.764 0 27.42 0 25.96c0-1.476.24-2.83.722-4.06.484-1.233 1.167-2.293 2.054-3.18.887-.89 1.963-1.576 3.226-2.065s2.683-.733 4.257-.733c1.608 0 3 .237 4.177.713 1.18.474 2.176 1.093 2.995 1.853l-1.065 1.658c-.208.336-.486.502-.832.502-.218 0-.442-.07-.667-.218-.292-.17-.59-.344-.894-.516-.305-.17-.64-.32-1.01-.448-.368-.126-.78-.23-1.24-.313-.46-.08-.99-.122-1.59-.122-.973 0-1.852.164-2.638.49-.788.326-1.457.792-2.012 1.4-.554.606-.982 1.336-1.282 2.187-.302.852-.452 1.803-.452 2.854 0 1.134.16 2.14.478 3.024.317.883.763 1.628 1.336 2.233.574.607 1.255 1.07 2.046 1.393s1.654.483 2.59.483zM33.307 16.138v2.91h-8.742v5.446h6.888v2.812h-6.888v5.556h8.742v2.92h-12.44V16.14h12.44zM38.816 16.16c.108.014.207.04.295.082.085.04.17.1.253.176.08.077.172.18.272.307L49.987 29.86c-.036-.317-.063-.626-.073-.93-.015-.303-.02-.587-.02-.85V16.14h3.232v19.644H51.23c-.293 0-.533-.044-.723-.137-.193-.09-.377-.253-.56-.487l-10.31-13.083c.024.29.046.578.06.862.014.286.02.546.02.78v12.064h-3.232V16.14h1.925c.162 0 .297.008.406.022zM65.88 28.146v7.636h-3.67v-7.636l-7.188-12.008h3.232c.317 0 .57.078.756.232.187.154.342.348.47.583l3.615 6.562c.21.39.39.76.546 1.106.155.35.295.692.423 1.028.118-.346.253-.69.402-1.04.15-.348.33-.714.54-1.094l3.587-6.562c.1-.197.25-.384.45-.556.2-.17.455-.26.764-.26h3.246l-7.173 12.01z"/></g></svg>